<?xml version="1.0" encoding="UTF-8"?><svg id="Calque_2" xmlns="http://www.w3.org/2000/svg" viewBox="0 0 1152.77 288.24"><defs><style>.cls-1 {
  fill: #fff;
}

</style></defs><g id="Laag_1"><path id="Brabo_logo_2020" class="cls-1" d="m575.58,126.92s-50.02-.05-52.94-.05l-28.53,93.88h-31.88l36.98-121.88h85.6l-9.23,28.05Zm240.18-59.96h-32.06l-46.14,152.08,165.42.32,36.53-120.39h-105.3s-9.78,27.99-9.78,27.99c18.76-.01,71.68-.05,74.26-.05l-19.4,63.92h-101.19c.74-2.45,37.66-123.88,37.66-123.88Zm-458.23,0h-32.06l-46.14,152.08,165.42.32,36.53-120.39h-105.3s-9.78,27.99-9.78,27.99c18.76-.01,71.68-.05,74.26-.05l-19.4,63.92h-101.19l37.66-123.88Zm329.53,78.9h-124.68l-22.24,73.32,179.26.19,36.55-120.46h-159.32l-9.65,28.01h128.45l-19.76,65.13h-116.5l6.99-23.03h93.31l7.6-23.16Zm294.83-18.98l-32.28.72-27.73,91.38,165.67-.56,36.26-119.51-133.73.02-8.21,27.98c18.73,0,98.53-.05,101.12-.05l-19.4,63.94h-101.17l19.46-63.91Z"></path><path class="cls-1" d="m1141.16,99.48c6.54,0,11.61,5.08,11.61,11.41s-5.08,11.48-11.68,11.48-11.75-5.01-11.75-11.48,5.22-11.41,11.75-11.41h.07Zm-.14,2.3c-5.01,0-8.76,4.1-8.76,9.11s3.76,9.11,8.9,9.11c5.01.07,8.69-4.03,8.69-9.11s-3.69-9.11-8.76-9.11h-.07Zm-1.74,15.02h-2.64v-11.34c1.04-.21,2.5-.42,4.38-.42,2.16,0,3.13.35,3.96.9.63.49,1.11,1.39,1.11,2.43,0,1.32-.97,2.3-2.36,2.71v.14c1.11.35,1.74,1.25,2.09,2.78.35,1.74.56,2.43.83,2.78h-2.85c-.35-.42-.56-1.39-.9-2.71-.21-1.25-.9-1.81-2.36-1.81h-1.25v4.52Zm.07-6.4h1.25c1.46,0,2.64-.49,2.64-1.67,0-1.04-.76-1.74-2.43-1.74-.7,0-1.18.07-1.46.14v3.27Z"></path><path class="cls-1" d="m28.7,82.11L0,110.8l94.83,177.44,148.36-147.78L168.12,0l-94.25,94.27,16.29,33.8c16.78-16.8,64.12-64.21,66.43-66.52l39.86,74.58-90.58,90.58c-1.53-2.86-77.18-144.6-77.18-144.6Z"></path></g></svg>