<?xml version="1.0" encoding="UTF-8"?><svg id="Calque_2" xmlns="http://www.w3.org/2000/svg" viewBox="0 0 1094.29 1094.29"><defs><style>.cls-1 {
  fill: #fff;
}

</style></defs><g id="Layer_1"><path class="cls-1" d="m671.56,594.11c0,5.18,1.2,9.32,3.6,12.45,2.39,3.13,5.65,4.69,9.75,4.69,5.97,0,10.29-2.27,12.99-6.81,2.69-4.55,4.03-17.76,4.03-39.65v-18.32c-10.54,3.32-18.23,7.43-23.09,12.32-4.85,4.88-7.28,16.66-7.28,35.33Z"></path><path class="cls-1" d="m439.43,504.39c-6.2,0-10.42,3.18-12.64,9.54-2.22,6.35-3.33,22.91-3.33,49.68v5.13c0,20.03,1.05,32.83,3.16,38.4,2.11,5.57,5.91,8.35,11.41,8.35,6.44,0,10.88-3.66,13.35-10.99,2.46-7.33,3.68-26.63,3.68-57.89,0-16.03-1.17-27.06-3.51-33.13-2.34-6.05-6.38-9.09-12.12-9.09Z"></path><path class="cls-1" d="m248.74,493.4c-7.72,0-12.23,5.08-13.52,15.24v91.18c1.17,10.15,5.85,15.24,14.05,15.24,6.2,0,10.71-3.52,13.52-10.56.35-3.32.52-6.05.52-8.21v-84.13c0-12.5-4.86-18.76-14.57-18.76Z"></path><path class="cls-1" d="m342.68,493.4c-7.72,0-12.23,5.08-13.52,15.24v91.18c1.17,10.15,5.85,15.24,14.05,15.24,6.2,0,10.71-3.52,13.52-10.56.34-3.32.52-6.05.52-8.21v-84.13c0-12.5-4.86-18.76-14.58-18.76Z"></path><path class="cls-1" d="m857.7,490.04c-4.68,0-8.05,2.32-10.1,6.95-2.05,4.65-3.07,18.75-3.07,42.29,0,2.94.03,5.23.09,6.89.05,1.66.14,3.13.26,4.39l25.81-5.27v-1.02c.23-5.17.35-8.84.35-10.99,0-19.35-1.09-31.39-3.25-36.13-2.17-4.74-5.54-7.1-10.1-7.1Z"></path><path class="cls-1" d="m1068.56,380.96c-4.31-13.53-9.14-26.83-14.45-39.89-26.51,27.74-68.79,31.99-97.71,8.58-11-8.9-18.51-20.61-22.51-33.45-25.12,13.77-56.15,12.47-78.9-5.95-18.17-14.71-26.9-37.02-25.75-59.55-21.51,6.07-44.95,2.33-63.12-12.37-21.73-17.59-30.01-46.04-23.92-72.77-10.9-2.01-21.4-6.59-30.54-13.99-30.78-24.91-34.72-71.63-8.8-104.34,5.95-7.51,13-13.51,20.64-18.17C668.16,10.22,608.85,0,547.14,0c-80.04,0-156.07,17.19-224.59,48.08-.42.19-.85.39-1.27.58-3.54,1.61-7.07,3.25-10.57,4.93-.52.25-1.03.5-1.55.75-3.71,1.79-7.39,3.62-11.05,5.49-.03.02-.06.03-.09.05C123.69,149.18,3.62,329.3.12,537.79c-.05,3.12-.12,6.23-.12,9.36,0,96.1,24.8,186.39,68.31,264.87,64.75,116.8,170.98,207.4,298.81,251.93,56.38,19.64,116.94,30.34,180.02,30.34,20.64,0,41-1.18,61.04-3.41,270.81-30.07,481.96-257.77,486-535.64.04-2.7.1-5.39.1-8.09,0-57.94-9.04-113.77-25.73-166.18Zm-870.68,79.02c0,.79-.36,1.18-1.05,1.18h-34.07v32.98h34.07c.7.1,1.05.44,1.05,1.02v20.96c0,.78-.36,1.17-1.05,1.17h-34.07v123.71c0,.78-.29,1.17-.88,1.17h-25.99c-.71,0-1.05-.39-1.05-1.17v-208.13c.11-.78.46-1.18,1.05-1.18h60.93c.7.1,1.05.49,1.05,1.18v27.11Zm91.25,143.93c0,15.93-9.19,28.1-27.57,36.5-4.1,1.17-7.61,1.76-10.53,1.76h-4.57c-15.8,0-27.92-9.23-36.35-27.7-1.17-4.19-1.75-7.71-1.75-10.55v-98.79c0-15.93,9.18-28.09,27.57-36.5,4.21-1.17,7.73-1.76,10.53-1.76h4.57c15.8,0,27.91,9.23,36.35,27.69,1.17,4.21,1.75,7.73,1.75,10.56v98.79Zm93.94,0c0,15.93-9.19,28.1-27.56,36.5-4.11,1.17-7.61,1.76-10.54,1.76h-4.57c-15.8,0-27.92-9.23-36.35-27.7-1.17-4.19-1.76-7.71-1.76-10.55v-98.79c0-15.93,9.18-28.09,27.57-36.5,4.22-1.17,7.73-1.76,10.54-1.76h4.57c15.8,0,27.91,9.23,36.35,27.69,1.17,4.21,1.75,7.73,1.75,10.56v98.79Zm100.44,36.94c0,.69-.41,1.03-1.23,1.03h-25.46c-.71,0-1.05-.34-1.05-1.03v-7.91c-12.41,7.13-22.12,10.69-29.14,10.69h-3.68c-2.11,0-4.92-.92-8.43-2.78-12.88-11.23-19.3-37.18-19.23-77.82.06-40.65,2.42-64.54,7.11-71.68,10.07-19.34,27.86-20.76,53.37-4.25v-48.95c0-.68.35-1.08,1.05-1.17h25.46c.71,0,1.11.39,1.23,1.17v202.7Zm150.83.15c0,.78-.41,1.18-1.23,1.18h-23.18c-.82,0-1.23-.4-1.23-1.18v-127.37c0-9.18-3.51-13.77-10.53-13.77h-1.94c-7.14,0-12.05,4.6-14.75,13.77-.82,4.4-1.22,9.96-1.22,16.71v110.66c0,.78-.42,1.18-1.24,1.18h-24.23c-.82,0-1.23-.4-1.23-1.18v-133.38c0-4.59-3.57-7.57-10.71-8.94-11.48,0-17.21,7.77-17.21,23.31v119.01c0,.78-.41,1.18-1.23,1.18h-24.93c-.83,0-1.22-.4-1.22-1.18v-166.06c.11-.68.52-1.02,1.22-1.02h24.93c.82.09,1.23.44,1.23,1.02v7.18h.52c11.71-6.64,20.84-9.97,27.4-9.97h2.28c8.19,0,14.33,4.25,18.44,12.75,15.68-8.5,27.39-12.75,35.12-12.75h2.28c10.77,0,18.32,9.97,22.65,29.91v138.94Zm94.99-.28c0,.78-.41,1.17-1.23,1.17h-21.77c-.82,0-1.23-.39-1.23-1.17l-2.99-9.24c-11.93,7.13-21.36,10.7-28.27,10.7h-3.51c-9.37,0-16.62-8.84-21.77-26.53-.46,0-.7-.19-.7-.58-7.83-47.88,4.92-77.64,38.28-89.26,4.45,0,9.77-1.41,15.98-4.25v-20.67c0-4.88-3.51-7.33-10.53-7.33h-4.74c-6.32.79-9.48,3.43-9.48,7.92v9.09c0,.68-.41,1.03-1.23,1.03-15.34-3.81-23.01-6.35-23.01-7.62,0-14.07,6.73-23.94,20.2-29.61,5.5-2.64,10.42-3.96,14.75-3.96h7.03c12.64,0,23.23,6.6,31.78,19.79,1.64,4.39,2.46,7.77,2.46,10.11v140.42Zm84.98,1.45h-23.18c-2.81-5.47-9.83-28.33-21.08-68.59h-1.57v67.42c0,.78-.35,1.17-1.05,1.17h-21.07c-.72,0-1.06-.39-1.06-1.17v-192.3c.12-.78.47-1.17,1.06-1.17h21.07c.71.1,1.05.49,1.05,1.17v66.84h.52c1.41-5.17,7.08-21.98,17.04-50.42h25.29c-4.22,11.24-13.7,37.23-28.45,77.98l32.48,98.5-1.05.58Zm79.91-82.07c0,.87-.41,1.31-1.22,1.31l-48.29,10.26v33.71c.47,6.26,3.4,9.38,8.78,9.38h5.98c5.84-.78,8.78-3.92,8.78-9.38v-13.05c.11-.78.52-1.17,1.22-1.17l23.53-5.86c.82.1,1.22.49,1.22,1.17v23.31c0,15.15-10.41,25.7-31.25,31.65-4.33,0-6.49.2-6.49.59-13.59,0-24.76-6.01-33.53-18.03-3.16-4.7-4.75-11.49-4.75-20.37v-101.87c0-18.47,8.66-30.63,25.99-36.5l12.29-1.9c17.44,0,29.84,8.69,37.22,26.08l.52,6.16v64.5Zm82-48.08c0,1.37-7.44,3.72-22.3,7.04l-.53-1.17v-7.62c-.34-6.26-1.75-9.38-4.21-9.38-5.5,0-11.12,7.22-16.86,21.69v118.43c0,.78-.35,1.17-1.05,1.17h-22.82c-.7,0-1.05-.39-1.05-1.17v-168.85c.12-.78.47-1.17,1.05-1.17h22.82c.47,0,1,.58,1.59,1.76v14.65h.52c12.17-10.94,20.42-16.41,24.76-16.41,9.48,0,15.51,10.55,18.08,31.66v9.38Z"></path></g></svg>