<?xml version="1.0" encoding="UTF-8"?><svg id="Calque_2" xmlns="http://www.w3.org/2000/svg" viewBox="0 0 229.43 46.93"><defs><style>.cls-1 {
  fill: #fff;
}

</style></defs><g id="Calque_3"><path class="cls-1" d="m62.34,33.45V15.44c0-.76.27-1.39.8-1.91.53-.51,1.16-.77,1.88-.77h2.28c.23,0,.42.08.57.23.15.15.23.34.23.57v7.14c0,.35.12.59.37.72.25.13.44.2.58.2,1.27,0,2.33-.09,3.19-.28.85-.18,1.68-.45,2.48-.8.16-.08.31-.2.43-.34.12-.14.18-.33.18-.55v-4.22c0-.41.08-.78.23-1.11.15-.33.36-.61.62-.83.26-.23.54-.4.86-.54.32-.13.64-.2.97-.2h2.28c.23,0,.42.08.57.23.15.15.23.34.23.57v19.88c0,.25-.07.44-.22.57s-.34.2-.58.2h-4.15c-.21,0-.39-.07-.55-.21-.16-.14-.25-.33-.25-.55v-7.29c0-.31-.1-.53-.29-.66-.2-.13-.4-.2-.63-.2-.14,0-.25.01-.31.03-1.01.29-2.02.48-3.03.57-1.01.09-1.91.14-2.69.14-.41,0-.76,0-1.05-.02-.29-.01-.51-.03-.68-.05.41.06.75.25,1.03.55.28.31.42.66.42,1.05v5.88c0,.25-.07.44-.22.57s-.34.2-.58.2h-4.19c-.23,0-.41-.07-.55-.21-.14-.14-.22-.33-.22-.55Z"></path><path class="cls-1" d="m85.3,33.45V15.44c0-.78.27-1.42.8-1.92.53-.5,1.16-.75,1.88-.75h2.46c.25,0,.43.07.55.22.14.14.22.33.22.55v19.91c0,.23-.07.41-.22.55-.12.14-.31.21-.55.21h-4.37c-.23,0-.41-.07-.55-.21-.14-.14-.22-.33-.22-.55Z"></path><path class="cls-1" d="m95.48,33.35V15.32c0-.39.08-.75.23-1.08.15-.33.35-.6.6-.83.25-.23.53-.41.86-.54.33-.13.66-.2.98-.2h2.37c.25,0,.43.07.55.21.14.14.22.33.22.55v14.92c0,.16.08.36.25.6s.39.35.68.35h8.28c.2,0,.39.07.55.21.16.14.25.33.25.55v3.26c0,.23-.08.41-.25.55-.16.14-.35.22-.55.22h-14.25c-.21,0-.38-.08-.54-.23-.15-.15-.23-.33-.23-.54Z"></path><path class="cls-1" d="m112.22,34.03c-.12-.16-.18-.32-.18-.46s0-.24.03-.28l7.14-19.63c.23-.59.64-.89,1.23-.89h4.77c.59,0,1,.3,1.23.89l7.14,19.63s.03.13.03.28c0,.16-.07.31-.2.45s-.28.2-.45.2h-3.97c-.51,0-.86-.23-1.05-.68l-1.6-4.34c-.74.29-1.49.52-2.25.71-.76.18-1.49.32-2.2.41-.71.09-1.37.15-1.98.18-.62.03-1.15.05-1.6.05h-.74c-.21,0-.36-.01-.46-.03.39.04.7.24.94.6s.26.77.08,1.25l-.43,1.17c-.18.45-.53.68-1.05.68h-3.97c-.14,0-.3-.06-.46-.18Zm7.82-7.88c.57-.04,1.17-.11,1.78-.21.53-.08,1.09-.2,1.68-.35.59-.15,1.14-.37,1.68-.66l-2.37-6.77-2.77,8Z"></path><path class="cls-1" d="m154.16,33.97c-.12.12-.28.18-.46.18h-4.31c-.59,0-1.02-.28-1.26-.83l-3.11-6.15c-.18-.33-.46-.49-.83-.49h-4.06c.53,0,.95.18,1.25.55.3.37.45.73.45,1.08v5.08c0,.25-.07.44-.22.57s-.34.2-.58.2h-4.19c-.23,0-.41-.07-.55-.21-.14-.14-.22-.33-.22-.55V15.38c0-.76.27-1.39.8-1.91.53-.51,1.16-.77,1.88-.77h6.52c1.15,0,2.24.13,3.28.38,1.04.26,1.94.66,2.72,1.22.78.55,1.41,1.28,1.88,2.17s.71,1.98.71,3.25-.26,2.39-.78,3.35c-.52.96-1.35,1.75-2.48,2.37-.16.12-.25.26-.25.4s.02.26.06.34l3.85,6.99c.06.12.09.24.09.34,0,.14-.06.3-.18.46Zm-6.25-14.28c0-.84-.24-1.48-.72-1.92-.48-.44-1.13-.66-1.95-.66h-5.29c.49,0,.89.18,1.2.54.31.36.46.73.46,1.12v2.46c0,.27.09.49.28.68.18.18.41.28.68.28h2.68c.82,0,1.47-.2,1.95-.61s.72-1.04.72-1.88Z"></path><path class="cls-1" d="m157.43,33.45V15.44c0-.78.27-1.42.8-1.92.53-.5,1.16-.75,1.88-.75h2.46c.25,0,.43.07.55.22.14.14.22.33.22.55v19.91c0,.23-.07.41-.22.55-.12.14-.31.21-.55.21h-4.37c-.23,0-.41-.07-.55-.21-.14-.14-.22-.33-.22-.55Z"></path><path class="cls-1" d="m176.47,34.52c-2.91,0-5.21-.71-6.89-2.12-1.68-1.42-2.58-3.5-2.68-6.25-.02-.57-.03-1.46-.03-2.65s.01-2.08.03-2.68c.08-2.71.98-4.79,2.69-6.26s4-2.2,6.88-2.2,5.13.73,6.85,2.2,2.61,3.55,2.69,6.26c.04,1.19.06,2.08.06,2.68s-.02,1.5-.06,2.65c-.1,2.75-.99,4.83-2.66,6.25s-3.96,2.12-6.88,2.12Zm0-4.62c1.07,0,1.92-.32,2.55-.97s.97-1.64,1.02-2.97c.04-1.19.06-2.04.06-2.55s-.02-1.34-.06-2.49c-.04-1.33-.38-2.32-1.02-2.97s-1.49-.97-2.55-.97-1.95.32-2.59.97c-.64.65-.97,1.64-1.02,2.97-.02.57-.03,1.4-.03,2.49s.01,1.96.03,2.55c.04,1.33.38,2.32,1.02,2.97.64.65,1.5.97,2.59.97Z"></path><path class="cls-1" d="m189.49,26.03v-10.65c0-.41.08-.78.25-1.11s.37-.61.63-.83c.26-.23.54-.4.86-.52.32-.12.63-.18.94-.18h2.28c.23,0,.42.08.57.23.15.15.23.34.23.57v12.43c0,1.17.28,2.1.85,2.79s1.45,1.03,2.66,1.03,2.09-.35,2.65-1.05.83-1.62.83-2.77v-10.59c0-.43.09-.81.26-1.14.17-.33.39-.6.65-.83.26-.23.54-.4.86-.51.32-.11.62-.17.91-.17h2.28c.23,0,.42.08.57.23.15.15.23.34.23.57v12.49c0,1.46-.21,2.72-.65,3.78-.43,1.07-1.05,1.94-1.86,2.63-.81.69-1.78,1.2-2.91,1.54-1.13.34-2.39.51-3.78.51s-2.66-.16-3.8-.49c-1.14-.33-2.12-.84-2.94-1.54s-1.45-1.58-1.89-2.65c-.44-1.07-.66-2.33-.66-3.78Z"></path><path class="cls-1" d="m229.43,27.69c0,1.25-.29,2.31-.86,3.19-.57.87-1.31,1.57-2.22,2.09-.9.52-1.91.9-3.02,1.14-1.11.24-2.19.35-3.23.35-.72,0-1.47-.05-2.25-.14-.78-.09-1.53-.26-2.26-.51-.73-.25-1.42-.57-2.06-.97-.65-.4-1.2-.91-1.65-1.52-.74-.94-1.12-1.96-1.14-3.05,0-.18.06-.34.18-.46.16-.12.33-.18.49-.18h4.06c.27,0,.48.04.63.12.15.08.31.23.48.43.37.66.87,1.1,1.49,1.34.63.24,1.3.35,2.02.35.31,0,.66-.03,1.05-.08s.76-.14,1.11-.28c.35-.13.65-.32.89-.57.25-.25.37-.57.37-.98,0-.53-.21-.93-.65-1.19-.43-.26-.86-.46-1.29-.6-.33-.1-.73-.22-1.22-.34-.48-.12-1.04-.26-1.68-.4-.94-.18-1.86-.42-2.74-.71-.88-.29-1.67-.68-2.35-1.17-.69-.49-1.24-1.11-1.66-1.86-.42-.75-.63-1.68-.63-2.79,0-1.17.26-2.17.79-3,.52-.83,1.19-1.51,2.02-2.03.82-.52,1.74-.9,2.75-1.14,1.02-.24,2.03-.35,3.03-.35.7,0,1.41.06,2.14.18.73.12,1.43.32,2.11.58.68.27,1.31.61,1.89,1.02.58.41,1.1.9,1.55,1.48.7.92,1.07,1.84,1.11,2.74,0,.17-.06.33-.18.49-.12.12-.28.18-.46.18h-4.28c-.45,0-.8-.18-1.05-.55-.08-.29-.23-.53-.43-.72s-.45-.35-.72-.46c-.28-.11-.56-.2-.85-.25-.29-.05-.56-.08-.83-.08-.31,0-.62.02-.94.06-.32.04-.61.13-.86.26-.26.13-.47.32-.65.55-.18.24-.26.54-.26.91,0,.59.31,1.07.92,1.42.62.33,1.75.67,3.42,1.01.98.17,1.95.38,2.91.65.95.27,1.8.64,2.54,1.11s1.33,1.08,1.78,1.83c.45.75.68,1.71.68,2.88Z"></path><path class="cls-1" d="m1.81,16.95c-1.09,5.02-1.06,9.9.09,14.9-2.5-4.47-2.53-10.4-.09-14.9h0Z"></path><path class="cls-1" d="m32.17,1.97C22.98-.67,12.74,1.49,5.53,7.82c.77-.93,1.65-1.76,2.56-2.56C14.67-.21,24.39-1.6,32.17,1.97h0Z"></path><path class="cls-1" d="m43.34,38.51c5.45-7.72,6.13-18.37,1.37-26.57-.64-1.19-1.41-2.3-2.22-3.39.99.94,1.85,2.01,2.64,3.13,5.59,7.99,4.9,19.68-1.78,26.83h0Z"></path><path class="cls-1" d="m12.09,43.36c5.86,2.54,12.08,3.23,18.36,2.12-5.86,2.52-13.24,1.69-18.36-2.12h0Z"></path><path class="cls-1" d="m39.05,5.01l-1.9-.87-.86-.41c-.59-.28-1.21-.53-1.83-.71-4.73-1.4-4.88,1.58-4.81,2.57.03.41.06.82.08,1.24.17,3.43.76,15.37.84,19.96.03,1.84.3,3.09.63,3.93.38,1,1.25,1.72,2.3,1.92.98.19,2.47.34,3.99-.01,2.4-.55,2.37-3.17,2.46-5.15.09-2.01.25-4.02.39-6.03.27-4.07.51-8.15.87-12.22.01-.13.02-.26.04-.39.24-2.44-1.43-3.49-2.17-3.83Zm-4.76,25.67c-.03.34-.06,1.34-1.14.89-.47-.2-.66-.53-.73-1.16-.11-.98.06-1.75,0-3.03-.05-.9,0-1.8-.06-2.7-.13-1.88-.09-3.67-.19-5.55-.1-2-.19-4-.26-6-.05-1.34-.16-2.68-.28-4.02-.08-.84-.1-1.7-.16-2.55-.03-.44-.08-.87-.14-1.31-.06-.37-.23-.8-.09-1.17.29-.8,1.77-.87,2.19-.16.19.32.09,1.18.12,1.56.26,3.13.1,5.69.18,8.83.02.9.06,1.81.11,2.71.06,1.1.11,2.2.16,3.3.1,2.12.19,4.23.24,6.36.03,1.06.13,1.88.07,2.96,0,.14.05.5,0,1.05Z"></path><path class="cls-1" d="m41.24,40.04c-.01-1.18-.02-2.12-.03-3.3,0-.57-.01-1.14-.15-1.69-.17-.7-.62-1.38-1.25-1.73-.67-.37-1.49-.35-2.23-.31-1.03.05-2.05.1-3.08.15-.76.04-1.54.08-2.23.39-.69.31-1.27.88-1.56,1.59-.18.43-.25.89-.27,1.36-.02.29-.02.58-.02.86,0,1.08,0,2.16,0,3.24,0,.74,0,1.5.26,2.2.29.78.91,1.43,1.67,1.75.84.35,2.03.15,2.94.09,1.01-.06,1.79-.2,2.8-.26.58-.03,1.18-.07,1.7-.35.65-.35,1.07-1.04,1.26-1.76.19-.72.19-1.48.18-2.23Zm-8.87,3.14c-.19-.61-.36-1.26-.37-1.89,0-.64-.02-1.28-.03-1.93-.01-1.28-.01-2.57.06-3.85.04-.7.49-1.43,1.18-1.54.57-.09.65.49.63,1.05,0,.3-.05.6-.05.78,0,.57-.03,1.14-.05,1.71-.03,1.14-.04,2.29.1,3.42.1.76.32,1.51.3,2.28-.03,1.29-1.46,1.01-1.79-.04Z"></path><path class="cls-1" d="m28.24,40.45c-.01-.56-.02-1.11-.04-1.66-.01-.64-.03-1.28-.05-1.93l-.05-2.15c-.02-.78-.04-1.55-.06-2.33-.02-.82-.04-1.64-.06-2.46-.02-.85-.04-1.7-.06-2.55-.02-.87-.04-1.73-.06-2.6-.02-.87-.04-1.73-.06-2.6-.02-.85-.04-1.71-.06-2.56-.02-.82-.04-1.65-.06-2.48l-.06-2.35c-.02-.73-.04-1.45-.05-2.18-.02-.66-.03-1.31-.05-1.97-.01-.57-.03-1.14-.04-1.71-.01-.47-.02-.94-.04-1.41-.03-1.08.2-2.17-.69-2.97-.01-.01-.02-.02-.03-.03-.53-.44-1.11-.9-1.8-1.02-.66-.12-1.28.12-1.9.32-1.06.35-2.1.74-3.12,1.19-.91.4-1.94.83-2.66,1.54-.6.59-.4,1.37-.42,2.12,0,.58-.02,1.17-.03,1.75-.03,1.48-.08,2.96-.15,4.43-.06,1.36-.14,2.73-.28,4.09-.04.41-.26.79-.6,1.03-1.04.75-3.07.88-3.53-.64-.02-.07-.05-.17-.07-.24-.11-.58-.19-1.2-.25-1.84-.21-2.3-.11-4.77-.05-5.84.02-.31-.12-.62-.35-.83-.25-.21-.59-.27-.91-.31-1.31-.18-2.57,0-3.81.45-.57.21-1.14.45-1.67.75-1.7.98-1.47,3.2-1.58,4.91-.15,2.17-.21,4.34-.28,6.5,0,.06,0,.13,0,.19-.01.47-.03.95-.04,1.42-.09,3.8-.1,7.61-.08,11.42,0,1.33.02,2.67.04,4,0,.47.01.94.02,1.41,0,.56-.12,1.17.17,1.68.38.68,1.3.84,2.01.91,6.36.58,6.32-.92,6.39-1.18,0-.03.02-.19.03-.44,0-.06.04-.62.05-.76.11-1.64.3-4.65.6-7.08.02-.3.06-.58.11-.83.17-.77.57-1.48,1.22-1.95.55-.4,1.21-.6,1.88-.68.3-.04.61-.05.92-.04.32,0,.73.02.88.37.12.29.08.64.1.95.03.47.06.94.09,1.41.06,1,.12,2.01.18,3.01.05.97.1,1.94.15,2.91.04.79.08,1.58.11,2.37,0,.11,0,.22.01.33.03.76.56,1.41,1.31,1.6,1.51.39,3.55.82,4.91.96.06,0,.12.01.18.02.03,0,.06,0,.08,0,.09,0,.18.01.26.02.02,0,.04,0,.06,0,.02,0,.04,0,.06,0,.6.01,1.34-.07,2.07-.4.03-.01.06-.03.09-.04.65-.32,1.15-.76,1.19-1.53,0-.05,0-.09,0-.14.02-.78-.08-1.58-.1-2.36ZM8.23,14.63c0-.82-.08-1.78.13-2.58.05-.2.13-.39.26-.58.4-.59,1.13-.59,1.88-.49.74.1.4,1.2.31,1.65-.29,1.38-.36,2.94-.33,4.35.06,2.3.84,5.15,3.79,4.55.31-.06,1.64-.71,1.81-.42.18.3.04.87-.22,1.06-.4.28-1.01.35-1.47.52-.04.02-.08.03-.13.04-.28.09-.58.14-.87.19-.36.06-.72.1-1.08.12-.7.03-1.45-.03-2.09-.34-.24-.12-.46-.27-.65-.47-1.27-1.36-1.1-3.26-1.26-4.96-.08-.87-.1-1.75-.09-2.63Zm8.71,15.37c-.32.07-.98.03-1.38.05-.83.04-2.06.47-2.7,1-1.03.86-1.54,1.95-1.62,3.09-.08,1.12-.17,2.24-.18,3.36,0,.82-.04,1.64-.03,2.46.01.77.27,1.57.09,2.33-.19.86-1.33,1.25-2.04.72-.48-.36-.38-1.69-.42-2.22-.09-1.43-.14-2.87-.2-4.3-.07-1.54.04-3.14.52-4.63.18-.55.44-1.09.83-1.52,1.06-1.19,2.69-1.66,4.22-1.86.46-.06.92-.1,1.38-.13.26-.02.53-.03.79-.04.63-.02,1.15.2,1.16.91,0,.55.03.69-.41.79Zm9.36,13.15c-.08.22-.19.4-.37.51-.16.1-.37.12-.55.09-1.23-.22-1.42-1.38-1.47-2.41-.1-2.07-.23-4.12-.25-6.2-.02-2.99,0-5.98,0-8.97,0-4.02-.01-8.04.04-12.06.03-2.69.05-5.4.32-8.07.04-.35.07-.71.12-1.06.09-.61.68-.68,1.11-.33.38.31.36.82.38,1.26.05.88.11,1.76.15,2.64.06,1.29.11,2.58.14,3.86.08,3.04.12,6.08.14,9.12.03,3.22.03,6.45.05,9.67,0,2.02.18,4.04.2,6.06.01,1.03.04,2.07.13,3.1.05.6.14,1.98-.14,2.8Z"></path></g></svg>