<?xml version="1.0" encoding="UTF-8"?><svg id="Calque_2" xmlns="http://www.w3.org/2000/svg" viewBox="0 0 1322.32 245.25"><defs><style>.cls-1 {
  fill: #fff;
}

</style></defs><g id="Layer_1"><path class="cls-1" d="m253.36,0l-75.01,202.35L131.87,0h-41.02L0,245.25h47.43l56.69-152.56,35.61,152.56h70.21L300.8,0h-47.43Z"></path><path class="cls-1" d="m443.23,0l-176.17,245.25h53.33l9.6-13.7h105.43l-.61,13.7h49.4L489.79,0h-46.56Zm-6.28,189.21h-77.89l82.65-118.08-4.76,118.08Z"></path><path class="cls-1" d="m849.98,0h-64.76l-153.56,136.32L682.37,0h-49.09l-90.85,245.25h49.09l10.87-29.37,64.54-56.29,24.57,85.66h55.99l-35.57-124.59L849.98,0Z"></path><path class="cls-1" d="m1070.66,42.76l16.02-42.76h-179.09l-90.85,245.25h48.96l31.11-83.13h117.25l15.49-42.33h-117.25l28.41-77.02h129.95Z"></path><path class="cls-1" d="m1247.04,0h-98.62l-90.85,245.25h48.87l75.06-202.48h49.53c41.89,0,51.32,25.79,28.89,85.92l-12.92,34.69c-17.15,45.95-37.7,72.09-65.15,81.86h68.95c17.41-19.9,32.25-46.74,45.3-81.86l12.92-34.69c32.29-87.19,3.62-128.69-61.97-128.69Z"></path></g></svg>